#!OML:ASF G:\JayActor3\Patient Classification 1\Patient 1\Session 2\male.ASF
:FULLY-SPECIFIED
:DEGREES
1897
root -22.0855 15.7531 -6.48631 376.202 56.3226 -6.27562
lowerback 22.5587 1.23932 4.39833
upperback 10.1689 3.07141 3.58435
thorax -1.43451 1.74722 0.629683
lowerneck -11.6551 5.43163 4.19697
upperneck -8.25493 6.81018 -10.0298
head -0.100168 3.43674 -3.75192
rclavicle 1.35174e-014 7.15625e-014
rhumerus -8.26508 4.67123 -26.7098
rradius 42.0963
rwrist -6.88346
rhand -25.6014 9.41859
rfingers 7.12502
rthumb 0.930771 -20.5591
lclavicle 1.35174e-014 7.15625e-014
lhumerus 9.6185 -22.5411 26.1065
lradius 96.6289
lwrist 26.814
lhand -15.7256 15.8431
lfingers 7.12502
lthumb 10.4649 45.5626
rfemur -24.9531 -5.19848 7.83985
rtibia 57.7431
rfoot -10.6143 -24.7574
rtoes 21.711
lfemur -46.0117 3.07383 -37.8822
ltibia 43.0868
lfoot -5.61819 -25.4031
ltoes 11.4845
1898
root -21.936 15.8324 -6.57282 377.695 57.234 -5.1286
lowerback 22.8587 1.0807 4.85499
upperback 10.3956 3.01265 3.94049
thorax -1.32806 1.73824 0.765542
lowerneck -11.9834 5.15592 4.01498
upperneck -8.29207 6.4578 -10.3507
head -0.0760956 3.26321 -3.84233
rclavicle 2.8625e-014 7.95139e-014
rhumerus -9.08589 4.25296 -26.0485
rradius 40.0891
rwrist -7.76348
rhand -25.2481 9.02944
rfingers 7.12502
rthumb 1.2719 -20.9465
lclavicle 2.8625e-014 7.95139e-014
lhumerus 9.08854 -21.8631 24.7285
lradius 96.0892
lwrist 27.258
lhand -15.4685 15.8001
lfingers 7.12502
lthumb 10.7128 45.507
rfemur -26.9172 -3.7757 7.73489
rtibia 61.1797
rfoot -8.56499 -21.4332
rtoes 20.3533
lfemur -44.4995 4.17342 -39.5653
ltibia 40.2742
lfoot -3.48223 -27.2958
ltoes 9.97823
1899
root -21.7879 15.9017 -6.65475 379.413 58.2412 -3.74206
lowerback 23.1387 0.890974 5.26308
upperback 10.5761 2.90969 4.31423
thorax -1.2655 1.70497 0.958672
lowerneck -12.3733 4.86202 3.81948
upperneck -8.2449 6.08839 -10.6513
head -0.017073 3.07669 -3.92254
rclavicle -2.06736e-014 4.21423e-014
rhumerus -10.1222 4.05527 -25.4187
rradius 38.3448
rwrist -8.8115
rhand -24.7755 8.54969
rfingers 7.12502
rthumb 1.72844 -21.4231
lclavicle -2.06736e-014 4.21423e-014
lhumerus 8.81167 -21.0447 23.159
lradius 95.5188
lwrist 27.8331
lhand -15.278 15.7764
lfingers 7.12502
lthumb 10.8966 45.4737
rfemur -29.0462 -2.28158 7.48465
rtibia 64.8745
rfoot -7.77861 -18.4987
rtoes 19.5761
lfemur -42.9871 5.52784 -41.4222
ltibia 37.5496
lfoot -0.773245 -29.0066
ltoes 8.73506
1900
root -21.6412 15.9599 -6.73047 381.389 59.3491 -2.1075
lowerback 23.3612 0.677372 5.62235
upperback 10.7028 2.76849 4.70547
thorax -1.23689 1.64993 1.20887
lowerneck -12.8236 4.56019 3.63322
upperneck -8.13251 5.71354 -10.9361
head 0.0725799 2.88259 -3.99885
rclavicle -7.4743e-014 2.14687e-014
rhumerus -11.4105 3.97527 -24.8722
rradius 36.895
rwrist -9.89976
rhand -24.2664 8.02011
rfingers 7.12502
rthumb 2.22004 -21.9481
lclavicle -7.4743e-014 2.14687e-014
lhumerus 8.77322 -20.076 21.4339
lradius 94.9447
lwrist 28.4142
lhand -15.1447 15.7386
lfingers 7.12502
lthumb 11.0252 45.4291
rfemur -31.3672 -0.817003 7.1278
rtibia 68.8225
rfoot -7.84633 -16.5827
rtoes 19.1699
lfemur -41.5211 7.13638 -43.4272
ltibia 34.9963
lfoot 2.54794 -30.3845
ltoes 7.98641
1901
root -21.4955 16.0064 -6.79914 383.624 60.5698 -0.227145
lowerback 23.5141 0.434448 5.95224
upperback 10.7741 2.58485 5.11512
thorax -1.23717 1.57167 1.50759
lowerneck -13.309 4.26222 3.45599
upperneck -7.99422 5.34821 -11.1871
head 0.176181 2.69029 -4.06561
rclavicle 3.65764e-014 8.74653e-015
rhumerus -12.9477 3.87569 -24.4521
rradius 35.7373
rwrist -10.9024
rhand -23.7964 7.49957
rfingers 7.12502
rthumb 2.674 -22.4634
lclavicle 3.65764e-014 8.74653e-015
lhumerus 8.94666 -18.9367 19.5948
lradius 94.3771
lwrist 28.8944
lhand -15.0539 15.6651
lfingers 7.12502
lthumb 11.1127 45.3508
rfemur -33.8658 0.523072 6.69456
rtibia 72.9833
rfoot -8.43267 -15.7966
rtoes 19.0157
lfemur -40.1203 8.97233 -45.5251
ltibia 32.6942
lfoot 6.46974 -31.2774
ltoes 8.04481
1902
root -21.3517 16.0413 -6.86081 386.149 61.9354 1.92496
lowerback 23.5832 0.15021 6.28063
upperback 10.79 2.34797 5.54459
thorax -1.25752 1.46618 1.8436
lowerneck -13.7936 3.97188 3.29197
upperneck -7.89044 4.9935 -11.3917
head 0.267503 2.50363 -4.12045
rclavicle 7.95139e-015 3.18055e-015
rhumerus -14.7163 3.61802 -24.1832
rradius 34.8412
rwrist -11.7331
rhand -23.468 7.05116
rfingers 7.12502
rthumb 2.99118 -22.9076
lclavicle 7.95139e-015 3.18055e-015
lhumerus 9.33725 -17.5998 17.6683
lradius 93.804
lwrist 29.2185
lhand -14.9941 15.5507
lfingers 7.12502
lthumb 11.1704 45.2333
rfemur -36.5334 1.65253 6.20685
rtibia 77.2926
rfoot -9.31045 -15.8861
rtoes 18.9892
lfemur -38.7916 10.9716 -47.6468
ltibia 30.6953
lfoot 10.92 -31.5759
ltoes 9.12577
